<?xml version="1.0" encoding="UTF-8"?>
<svg id="Capa_1" data-name="Capa 1" xmlns="http://www.w3.org/2000/svg" viewBox="0 0 1080 1080">
  <defs>
    <style>
      .cls-1 {
        fill: #fff;
        stroke-width: 0px;
      }
    </style>
  </defs>
  <path class="cls-1" d="m1021.95,542.02c0-266.17-215.78-481.95-481.95-481.95S58.05,275.85,58.05,542.02c0,238.48,173.21,436.49,400.68,475.12,1.75-47.72,3.52-95.44,5.18-143.17.74-21.3,3.2-42.99.16-63.82-1.99-13.62-9.82-28.61-19.58-38.49-50.83-51.42-62.73-113.67-58.02-182.88,5.64-82.66,7.73-165.57,12.92-248.27.78-12.5,6.8-28.79,16.08-35.79,19.72-14.87,43.26-1.77,44.74,24.04,3.44,59.86,5.25,119.82,7.74,179.74.72,17.35.19,34.9,2.85,51.96,1.01,6.48,9.38,11.82,14.4,17.68,4.34-5.79,11.83-11.26,12.48-17.43,2.79-26.66,4.17-53.51,4.94-80.33,1.39-48.15,1.64-96.34,3.02-144.49.73-25.35,10.48-35.78,31.2-35.86,20.64-.08,30.84,10.26,31.66,35.19,2.29,69.45,3.82,138.93,5.66,208.39.17,6.31-1.44,13.47,1.02,18.71,2.91,6.19,9.35,10.73,14.26,15.98,4.48-5.41,12.47-10.57,12.88-16.27,2.7-37.79,3.41-75.71,5.48-113.55,2.24-40.92,5.47-81.79,7.86-122.7,1.27-21.65,16.13-28.75,33.64-28.73,19.29.02,32.66,10.14,34.02,31.7,3.36,53.52,6.99,107.02,10.47,159.95,0,48.77,1.79,96.95-.46,144.95-2.74,58.48-28.38,106.47-77.67,139.15-22.35,14.82-28.15,33.6-26.35,58.42,4.55,62.9,9.02,125.8,13.36,188.71,236.56-30.72,419.27-232.97,419.27-477.9Z"/>
</svg>